<?xml version="1.0" encoding="utf-8"?>
<!-- Generator: Adobe Illustrator 23.0.1, SVG Export Plug-In . SVG Version: 6.00 Build 0)  -->
<svg version="1.1" id="Layer_1" xmlns="http://www.w3.org/2000/svg" xmlns:xlink="http://www.w3.org/1999/xlink" x="0px" y="0px"
	 viewBox="0 0 54 54" style="enable-background:new 0 0 54 54;" xml:space="preserve">
<style type="text/css">
	.st0{fill:#231F20;}
</style>
<path class="st0" d="M36.69,34.61c9.54,0,17.31-7.76,17.31-17.31S46.24,0,36.69,0S19.39,7.77,19.39,17.31
	c0,0.75,0.07,1.49,0.16,2.22c-0.74-0.1-1.49-0.15-2.24-0.15C7.76,19.39,0,27.15,0,36.69S7.76,54,17.31,54s17.31-7.76,17.31-17.31
	c0-0.75-0.05-1.5-0.14-2.24C35.2,34.55,35.94,34.61,36.69,34.61z M36.69,2.95c7.92,0,14.36,6.44,14.36,14.36
	s-6.44,14.36-14.36,14.36s-14.36-6.44-14.36-14.36S28.77,2.95,36.69,2.95z M31.67,36.69c0,7.92-6.44,14.36-14.36,14.36
	S2.95,44.61,2.95,36.69s6.44-14.36,14.36-14.36c0.99,0,1.97,0.13,2.94,0.33c1.71,5.24,5.85,9.38,11.09,11.09
	C31.54,34.72,31.67,35.7,31.67,36.69z M1.98,16.84c1.36-3.35,3.36-6.36,5.93-8.93c0.69-0.69,1.45-1.29,2.2-1.9l-1.53-2.6l8.81-0.07
	l-4.35,7.67l-1.42-2.42c-0.55,0.46-1.12,0.9-1.63,1.41c-2.3,2.3-4.07,4.97-5.28,7.96c-0.23,0.57-0.78,0.92-1.37,0.92
	c-0.19,0-0.37-0.03-0.55-0.11C2.03,18.45,1.67,17.59,1.98,16.84z M52.02,37.16c-1.36,3.35-3.36,6.36-5.93,8.93
	c-0.69,0.69-1.45,1.29-2.2,1.9l1.53,2.6l-8.81,0.07l4.35-7.67l1.42,2.42c0.55-0.46,1.12-0.89,1.63-1.41c2.3-2.3,4.07-4.97,5.28-7.96
	c0.31-0.76,1.17-1.12,1.92-0.81C51.97,35.55,52.33,36.41,52.02,37.16z"/>
</svg>
