<?xml version="1.0" encoding="utf-8"?>
<!-- Generator: Adobe Illustrator 23.0.1, SVG Export Plug-In . SVG Version: 6.00 Build 0)  -->
<svg version="1.1" id="Layer_1" xmlns="http://www.w3.org/2000/svg" xmlns:xlink="http://www.w3.org/1999/xlink" x="0px" y="0px"
	 viewBox="0 0 54 54" style="enable-background:new 0 0 54 54;" xml:space="preserve">
<style type="text/css">
	.st0{fill:#231F20;}
</style>
<g>
	<path class="st0" d="M1.47,54C0.66,54,0,53.34,0,52.53V32.34c0-0.81,0.66-1.47,1.47-1.47s1.47,0.66,1.47,1.47v20.19
		C2.95,53.34,2.29,54,1.47,54z M13.16,52.53V22.07c0-0.81-0.66-1.47-1.47-1.47c-0.81,0-1.47,0.66-1.47,1.47v30.45
		c0,0.81,0.66,1.47,1.47,1.47C12.5,54,13.16,53.34,13.16,52.53z M23.37,52.53V10.59c0-0.81-0.66-1.47-1.47-1.47
		c-0.81,0-1.47,0.66-1.47,1.47v41.94c0,0.81,0.66,1.47,1.47,1.47C22.71,54,23.37,53.34,23.37,52.53z M33.58,52.53V15.98
		c0-0.81-0.66-1.47-1.47-1.47s-1.47,0.66-1.47,1.47v36.55c0,0.81,0.66,1.47,1.47,1.47S33.58,53.34,33.58,52.53z M43.79,52.53V22.07
		c0-0.81-0.66-1.47-1.47-1.47s-1.47,0.66-1.47,1.47v30.45c0,0.81,0.66,1.47,1.47,1.47S43.79,53.34,43.79,52.53z M54,52.53V1.47
		C54,0.66,53.34,0,52.53,0s-1.47,0.66-1.47,1.47v51.05c0,0.81,0.66,1.47,1.47,1.47S54,53.34,54,52.53z"/>
</g>
</svg>
